<?xml version="1.0" encoding="utf-8"?>
<!-- Svg Vector Icons : http://www.onlinewebfonts.com/icon -->
<!DOCTYPE svg PUBLIC "-//W3C//DTD SVG 1.1//EN" "http://www.w3.org/Graphics/SVG/1.1/DTD/svg11.dtd">
<svg version="1.1" xmlns="http://www.w3.org/2000/svg" xmlns:xlink="http://www.w3.org/1999/xlink" x="0px" y="0px" viewBox="0 0 1000 1000" enable-background="new 0 0 1000 1000" xml:space="preserve">
<metadata> Svg Vector Icons : http://www.onlinewebfonts.com/icon </metadata>
<g><g transform="translate(0.000000,403.000000) scale(0.100000,-0.100000)"><path d="M1984.7,1242C950.2,349.5,101.9-389.4,100-397.1c-1.9-7.7,844.5-744.7,1880.9-1637.2l1884.7-1625.6l5.8,1044.1l3.8,1044.1h389.6c1740.8,0,3093.9-316.7,4013.2-936.6c714-479.8,1222.6-1155.4,1529.6-2032.5l92.1-264.9v126.7c3.8,293.6-57.6,834.9-136.3,1216.8C9425.8-1807.8,8364.4-529.5,6731.1,192.1c-775.4,343.5-1729.3,570-2568,612.2l-278.3,13.4l-9.6,1023l-9.6,1024.9L1984.7,1242z"/></g></g>
</svg>